<?xml version="1.0" encoding="UTF-8" standalone="no"?><!DOCTYPE svg PUBLIC "-//W3C//DTD SVG 1.1//EN" "http://www.w3.org/Graphics/SVG/1.1/DTD/svg11.dtd"><svg width="100%" height="100%" viewBox="0 0 400 48" version="1.1" xmlns="http://www.w3.org/2000/svg" xmlns:xlink="http://www.w3.org/1999/xlink" xml:space="preserve" xmlns:serif="http://www.serif.com/" style="fill-rule:evenodd;clip-rule:evenodd;stroke-linejoin:round;stroke-miterlimit:1.5;"><rect id="Artboard1" x="0" y="0" width="400" height="47.998" style="fill:none;"/><g><path d="M120.445,19.089c-0.111,-0.433 -0.265,-0.83 -0.46,-1.193c-0.195,-0.362 -0.446,-0.676 -0.753,-0.941c-0.307,-0.265 -0.666,-0.471 -1.078,-0.617c-0.411,-0.147 -0.889,-0.22 -1.433,-0.22c-0.795,0 -1.482,0.16 -2.06,0.481c-0.579,0.321 -1.05,0.75 -1.413,1.287c-0.362,0.537 -0.631,1.147 -0.805,1.83c-0.174,0.684 -0.262,1.381 -0.262,2.093c0,0.711 0.088,1.408 0.262,2.092c0.174,0.683 0.443,1.293 0.805,1.83c0.363,0.537 0.834,0.966 1.413,1.287c0.578,0.321 1.265,0.481 2.06,0.481c0.586,0 1.102,-0.101 1.548,-0.303c0.447,-0.203 0.83,-0.481 1.151,-0.837c0.321,-0.356 0.572,-0.771 0.753,-1.245c0.182,-0.474 0.3,-0.983 0.356,-1.527l2.552,0c-0.056,0.892 -0.247,1.708 -0.575,2.448c-0.328,0.739 -0.771,1.377 -1.329,1.914c-0.557,0.537 -1.213,0.952 -1.966,1.245c-0.753,0.293 -1.583,0.439 -2.49,0.439c-1.116,0 -2.116,-0.206 -3.002,-0.617c-0.886,-0.412 -1.635,-0.973 -2.249,-1.684c-0.614,-0.712 -1.084,-1.541 -1.412,-2.49c-0.328,-0.948 -0.492,-1.96 -0.492,-3.033c0,-1.06 0.164,-2.065 0.492,-3.013c0.328,-0.948 0.798,-1.778 1.412,-2.49c0.614,-0.711 1.363,-1.276 2.249,-1.694c0.886,-0.419 1.886,-0.628 3.002,-0.628c0.837,0 1.625,0.115 2.364,0.345c0.74,0.23 1.392,0.565 1.956,1.005c0.565,0.439 1.022,0.972 1.371,1.6c0.348,0.628 0.565,1.346 0.648,2.155l-2.615,0Z" style="fill-rule:nonzero;"/><path d="M130.09,29.57c-0.865,0 -1.636,-0.143 -2.312,-0.429c-0.676,-0.286 -1.248,-0.68 -1.716,-1.182c-0.467,-0.502 -0.822,-1.102 -1.067,-1.799c-0.244,-0.697 -0.366,-1.464 -0.366,-2.301c0,-0.823 0.122,-1.583 0.366,-2.281c0.245,-0.697 0.6,-1.297 1.067,-1.799c0.468,-0.502 1.04,-0.896 1.716,-1.182c0.676,-0.286 1.447,-0.429 2.312,-0.429c0.864,0 1.635,0.143 2.311,0.429c0.677,0.286 1.249,0.68 1.716,1.182c0.467,0.502 0.823,1.102 1.067,1.799c0.244,0.698 0.366,1.458 0.366,2.281c0,0.837 -0.122,1.604 -0.366,2.301c-0.244,0.697 -0.6,1.297 -1.067,1.799c-0.467,0.502 -1.039,0.896 -1.716,1.182c-0.676,0.286 -1.447,0.429 -2.311,0.429Zm0,-1.883c0.53,0 0.99,-0.111 1.381,-0.334c0.39,-0.224 0.711,-0.516 0.962,-0.879c0.251,-0.363 0.436,-0.771 0.554,-1.224c0.119,-0.453 0.178,-0.917 0.178,-1.391c0,-0.46 -0.059,-0.921 -0.178,-1.381c-0.118,-0.46 -0.303,-0.868 -0.554,-1.224c-0.251,-0.356 -0.572,-0.645 -0.962,-0.868c-0.391,-0.223 -0.851,-0.335 -1.381,-0.335c-0.53,0 -0.991,0.112 -1.381,0.335c-0.391,0.223 -0.711,0.512 -0.962,0.868c-0.251,0.356 -0.436,0.764 -0.555,1.224c-0.118,0.46 -0.178,0.921 -0.178,1.381c0,0.474 0.06,0.938 0.178,1.391c0.119,0.453 0.304,0.861 0.555,1.224c0.251,0.363 0.571,0.655 0.962,0.879c0.39,0.223 0.851,0.334 1.381,0.334Z" style="fill-rule:nonzero;"/><rect x="137.6" y="14.34" width="2.385" height="14.938" style="fill-rule:nonzero;"/><path d="M152.768,29.277l-2.259,0l0,-1.464l-0.042,0c-0.321,0.627 -0.788,1.077 -1.402,1.349c-0.614,0.272 -1.262,0.408 -1.946,0.408c-0.85,0 -1.593,-0.15 -2.228,-0.45c-0.634,-0.299 -1.161,-0.707 -1.579,-1.223c-0.419,-0.517 -0.732,-1.127 -0.942,-1.831c-0.209,-0.704 -0.313,-1.461 -0.313,-2.27c0,-0.976 0.132,-1.82 0.397,-2.531c0.265,-0.712 0.617,-1.297 1.057,-1.758c0.439,-0.46 0.941,-0.798 1.506,-1.014c0.565,-0.217 1.14,-0.325 1.726,-0.325c0.335,0 0.676,0.032 1.025,0.094c0.349,0.063 0.683,0.164 1.004,0.304c0.321,0.139 0.617,0.317 0.889,0.533c0.272,0.216 0.499,0.471 0.68,0.764l0.042,0l0,-5.523l2.385,0l0,14.937Zm-8.327,-5.293c0,0.461 0.06,0.914 0.178,1.36c0.119,0.447 0.3,0.844 0.544,1.193c0.244,0.348 0.555,0.627 0.931,0.837c0.377,0.209 0.823,0.313 1.339,0.313c0.53,0 0.987,-0.111 1.371,-0.334c0.383,-0.224 0.697,-0.516 0.941,-0.879c0.244,-0.363 0.425,-0.771 0.544,-1.224c0.118,-0.453 0.178,-0.917 0.178,-1.391c0,-1.2 -0.269,-2.134 -0.806,-2.804c-0.537,-0.669 -1.265,-1.004 -2.186,-1.004c-0.558,0 -1.029,0.115 -1.412,0.345c-0.384,0.231 -0.697,0.53 -0.942,0.9c-0.244,0.37 -0.418,0.788 -0.523,1.255c-0.104,0.467 -0.157,0.945 -0.157,1.433Z" style="fill-rule:nonzero;"/><path d="M160.09,14.34l12.093,0l0,2.259l-4.749,0l0,12.678l-2.615,0l0,-12.678l-4.729,0l0,-2.259Z" style="fill-rule:nonzero;"/><path d="M170.07,18.461l2.615,0l2.824,8.076l0.042,0l2.741,-8.076l2.489,0l-4.205,11.402c-0.195,0.488 -0.387,0.956 -0.575,1.402c-0.189,0.446 -0.419,0.84 -0.691,1.182c-0.272,0.342 -0.61,0.614 -1.014,0.816c-0.405,0.202 -0.921,0.303 -1.548,0.303c-0.558,0 -1.109,-0.042 -1.653,-0.125l0,-2.009c0.195,0.028 0.383,0.059 0.565,0.094c0.181,0.035 0.369,0.053 0.565,0.053c0.278,0 0.509,-0.035 0.69,-0.105c0.181,-0.07 0.331,-0.171 0.45,-0.303c0.118,-0.133 0.219,-0.29 0.303,-0.471c0.084,-0.181 0.16,-0.391 0.23,-0.628l0.272,-0.837l-4.1,-10.774Z" style="fill-rule:nonzero;"/><path d="M182.183,18.461l2.259,0l0,1.465l0.042,0c0.335,-0.628 0.802,-1.078 1.402,-1.35c0.6,-0.272 1.248,-0.408 1.946,-0.408c0.85,0 1.593,0.15 2.228,0.45c0.634,0.3 1.161,0.711 1.579,1.234c0.419,0.523 0.732,1.134 0.942,1.831c0.209,0.697 0.313,1.444 0.313,2.239c0,0.725 -0.094,1.429 -0.282,2.113c-0.188,0.683 -0.474,1.286 -0.858,1.809c-0.383,0.523 -0.868,0.942 -1.454,1.256c-0.586,0.313 -1.276,0.47 -2.071,0.47c-0.349,0 -0.697,-0.031 -1.046,-0.094c-0.349,-0.063 -0.683,-0.164 -1.004,-0.303c-0.321,-0.14 -0.617,-0.318 -0.889,-0.534c-0.272,-0.216 -0.499,-0.47 -0.68,-0.763l-0.042,0l0,5.397l-2.385,0l0,-14.812Zm8.326,5.419c0,-0.488 -0.062,-0.963 -0.188,-1.423c-0.125,-0.46 -0.314,-0.868 -0.565,-1.224c-0.251,-0.355 -0.565,-0.641 -0.941,-0.858c-0.377,-0.216 -0.809,-0.324 -1.297,-0.324c-1.004,0 -1.761,0.349 -2.27,1.046c-0.509,0.698 -0.764,1.625 -0.764,2.783c0,0.544 0.066,1.049 0.199,1.516c0.132,0.468 0.331,0.869 0.596,1.203c0.265,0.335 0.582,0.6 0.952,0.795c0.37,0.196 0.799,0.293 1.287,0.293c0.544,0 1.004,-0.111 1.381,-0.334c0.376,-0.224 0.686,-0.513 0.93,-0.869c0.245,-0.355 0.419,-0.76 0.524,-1.213c0.104,-0.453 0.156,-0.917 0.156,-1.391Z" style="fill-rule:nonzero;"/><path d="M202.33,22.917c-0.028,-0.376 -0.108,-0.739 -0.241,-1.088c-0.132,-0.348 -0.314,-0.652 -0.544,-0.91c-0.23,-0.258 -0.509,-0.467 -0.837,-0.627c-0.327,-0.161 -0.693,-0.241 -1.098,-0.241c-0.418,0 -0.798,0.073 -1.14,0.22c-0.342,0.146 -0.635,0.349 -0.879,0.607c-0.244,0.258 -0.439,0.561 -0.586,0.91c-0.146,0.348 -0.226,0.725 -0.24,1.129l5.565,0Zm-5.565,1.569c0,0.419 0.059,0.823 0.178,1.214c0.118,0.39 0.296,0.732 0.533,1.025c0.237,0.293 0.537,0.526 0.9,0.701c0.362,0.174 0.795,0.261 1.297,0.261c0.697,0 1.259,-0.15 1.684,-0.449c0.425,-0.3 0.743,-0.75 0.952,-1.35l2.259,0c-0.125,0.586 -0.341,1.109 -0.648,1.569c-0.307,0.46 -0.677,0.848 -1.109,1.161c-0.432,0.314 -0.917,0.551 -1.454,0.712c-0.537,0.16 -1.098,0.24 -1.684,0.24c-0.851,0 -1.604,-0.139 -2.26,-0.418c-0.655,-0.279 -1.21,-0.67 -1.663,-1.172c-0.453,-0.502 -0.795,-1.102 -1.025,-1.799c-0.23,-0.697 -0.345,-1.464 -0.345,-2.301c0,-0.767 0.122,-1.496 0.366,-2.187c0.244,-0.69 0.593,-1.297 1.046,-1.82c0.453,-0.523 1.001,-0.938 1.642,-1.244c0.642,-0.307 1.367,-0.461 2.176,-0.461c0.851,0 1.614,0.178 2.291,0.534c0.676,0.355 1.238,0.826 1.684,1.412c0.446,0.586 0.771,1.259 0.973,2.019c0.202,0.76 0.254,1.544 0.157,2.353l-7.95,0Z" style="fill-rule:nonzero;"/><path d="M212.686,14.34l6.59,0c1.06,0 1.924,0.153 2.594,0.46c0.669,0.307 1.185,0.69 1.548,1.151c0.363,0.46 0.61,0.962 0.743,1.506c0.132,0.544 0.199,1.046 0.199,1.506c0,0.461 -0.067,0.959 -0.199,1.496c-0.133,0.537 -0.38,1.036 -0.743,1.496c-0.363,0.46 -0.879,0.84 -1.548,1.14c-0.67,0.3 -1.534,0.45 -2.594,0.45l-3.975,0l0,5.732l-2.615,0l0,-14.937Zm2.615,7.071l3.828,0c0.293,0 0.593,-0.042 0.9,-0.125c0.307,-0.084 0.589,-0.22 0.847,-0.408c0.258,-0.189 0.467,-0.44 0.628,-0.754c0.16,-0.313 0.24,-0.707 0.24,-1.182c0,-0.488 -0.069,-0.892 -0.209,-1.213c-0.139,-0.321 -0.328,-0.575 -0.565,-0.764c-0.237,-0.188 -0.509,-0.317 -0.816,-0.387c-0.306,-0.069 -0.634,-0.104 -0.983,-0.104l-3.87,0l0,4.937Z" style="fill-rule:nonzero;"/><path d="M226.305,18.461l2.239,0l0,2.092l0.042,0c0.069,-0.293 0.205,-0.579 0.408,-0.857c0.202,-0.279 0.446,-0.534 0.732,-0.764c0.286,-0.23 0.603,-0.415 0.952,-0.554c0.348,-0.14 0.704,-0.21 1.067,-0.21c0.279,0 0.47,0.007 0.575,0.021c0.105,0.014 0.213,0.028 0.324,0.042l0,2.301c-0.167,-0.028 -0.338,-0.052 -0.512,-0.073c-0.175,-0.021 -0.346,-0.031 -0.513,-0.031c-0.404,0 -0.784,0.08 -1.14,0.24c-0.356,0.161 -0.666,0.398 -0.931,0.712c-0.265,0.313 -0.474,0.701 -0.628,1.161c-0.153,0.46 -0.23,0.99 -0.23,1.59l0,5.146l-2.385,0l0,-10.816Z" style="fill-rule:nonzero;"/><path d="M242.728,26.871c0,0.293 0.038,0.503 0.115,0.628c0.077,0.126 0.227,0.188 0.45,0.188c0.07,0 0.153,0 0.251,0c0.098,0 0.209,-0.014 0.335,-0.042l0,1.653c-0.084,0.028 -0.192,0.06 -0.324,0.094c-0.133,0.035 -0.269,0.067 -0.408,0.095c-0.14,0.027 -0.279,0.048 -0.419,0.062c-0.139,0.014 -0.258,0.021 -0.356,0.021c-0.488,0 -0.892,-0.097 -1.213,-0.293c-0.321,-0.195 -0.53,-0.537 -0.628,-1.025c-0.474,0.46 -1.056,0.795 -1.746,1.004c-0.691,0.21 -1.357,0.314 -1.998,0.314c-0.489,0 -0.956,-0.066 -1.402,-0.199c-0.446,-0.132 -0.84,-0.327 -1.182,-0.585c-0.342,-0.258 -0.614,-0.586 -0.816,-0.984c-0.202,-0.397 -0.303,-0.861 -0.303,-1.391c0,-0.669 0.122,-1.213 0.366,-1.632c0.244,-0.418 0.565,-0.746 0.962,-0.983c0.398,-0.237 0.844,-0.408 1.339,-0.513c0.495,-0.104 0.994,-0.184 1.496,-0.24c0.432,-0.084 0.844,-0.143 1.234,-0.178c0.391,-0.035 0.736,-0.094 1.036,-0.178c0.3,-0.083 0.537,-0.212 0.711,-0.387c0.174,-0.174 0.262,-0.436 0.262,-0.784c0,-0.307 -0.074,-0.558 -0.22,-0.753c-0.147,-0.196 -0.328,-0.346 -0.544,-0.45c-0.216,-0.105 -0.457,-0.175 -0.722,-0.21c-0.265,-0.034 -0.516,-0.052 -0.753,-0.052c-0.669,0 -1.22,0.14 -1.653,0.419c-0.432,0.279 -0.676,0.711 -0.732,1.297l-2.385,0c0.042,-0.698 0.209,-1.276 0.502,-1.737c0.293,-0.46 0.666,-0.83 1.119,-1.109c0.454,-0.278 0.966,-0.474 1.538,-0.585c0.572,-0.112 1.158,-0.168 1.757,-0.168c0.53,0 1.054,0.056 1.57,0.168c0.516,0.111 0.979,0.293 1.391,0.544c0.411,0.251 0.742,0.575 0.994,0.972c0.251,0.398 0.376,0.883 0.376,1.454l0,5.565Zm-2.385,-3.012c-0.362,0.237 -0.809,0.38 -1.339,0.429c-0.53,0.048 -1.06,0.122 -1.59,0.219c-0.251,0.042 -0.495,0.101 -0.732,0.178c-0.237,0.077 -0.446,0.181 -0.628,0.314c-0.181,0.132 -0.324,0.307 -0.429,0.523c-0.104,0.216 -0.156,0.478 -0.156,0.785c0,0.265 0.076,0.488 0.23,0.669c0.153,0.181 0.338,0.324 0.554,0.429c0.216,0.105 0.453,0.178 0.711,0.22c0.258,0.041 0.492,0.062 0.701,0.062c0.265,0 0.551,-0.035 0.858,-0.104c0.307,-0.07 0.596,-0.189 0.868,-0.356c0.272,-0.167 0.499,-0.38 0.68,-0.638c0.181,-0.258 0.272,-0.575 0.272,-0.952l0,-1.778Z" style="fill-rule:nonzero;"/><path d="M252.603,22.081c-0.098,-0.67 -0.366,-1.176 -0.806,-1.517c-0.439,-0.342 -0.993,-0.513 -1.663,-0.513c-0.307,0 -0.634,0.052 -0.983,0.157c-0.349,0.105 -0.67,0.3 -0.963,0.586c-0.292,0.286 -0.536,0.683 -0.732,1.192c-0.195,0.509 -0.293,1.175 -0.293,1.998c0,0.447 0.053,0.893 0.157,1.339c0.105,0.447 0.272,0.844 0.502,1.193c0.231,0.348 0.527,0.631 0.89,0.847c0.362,0.216 0.801,0.324 1.318,0.324c0.697,0 1.272,-0.216 1.726,-0.648c0.453,-0.433 0.735,-1.039 0.847,-1.82l2.385,0c-0.223,1.408 -0.757,2.486 -1.601,3.232c-0.843,0.746 -1.963,1.119 -3.357,1.119c-0.851,0 -1.601,-0.143 -2.249,-0.429c-0.649,-0.286 -1.196,-0.676 -1.643,-1.171c-0.446,-0.495 -0.784,-1.085 -1.014,-1.768c-0.231,-0.683 -0.346,-1.423 -0.346,-2.218c0,-0.809 0.112,-1.569 0.335,-2.28c0.223,-0.711 0.558,-1.329 1.004,-1.852c0.447,-0.523 1.001,-0.934 1.664,-1.234c0.662,-0.3 1.44,-0.45 2.332,-0.45c0.628,0 1.224,0.081 1.789,0.241c0.565,0.16 1.067,0.401 1.506,0.722c0.44,0.32 0.799,0.725 1.078,1.213c0.279,0.488 0.446,1.067 0.502,1.737l-2.385,0Z" style="fill-rule:nonzero;"/><path d="M255.846,18.461l1.799,0l0,-3.243l2.385,0l0,3.243l2.155,0l0,1.778l-2.155,0l0,5.775c0,0.251 0.01,0.467 0.031,0.648c0.021,0.182 0.07,0.335 0.147,0.46c0.076,0.126 0.191,0.22 0.345,0.283c0.153,0.063 0.362,0.094 0.627,0.094c0.168,0 0.335,-0.003 0.503,-0.01c0.167,-0.007 0.334,-0.032 0.502,-0.074l0,1.841c-0.265,0.028 -0.523,0.056 -0.774,0.084c-0.252,0.028 -0.51,0.042 -0.775,0.042c-0.627,0 -1.133,-0.059 -1.516,-0.178c-0.384,-0.118 -0.684,-0.293 -0.9,-0.523c-0.216,-0.23 -0.363,-0.519 -0.439,-0.868c-0.077,-0.349 -0.122,-0.746 -0.136,-1.193l0,-6.381l-1.799,0l0,-1.778Z" style="fill-rule:nonzero;"/><path d="M263.963,14.34l2.385,0l0,2.259l-2.385,0l0,-2.259Zm0,4.121l2.385,0l0,10.816l-2.385,0l0,-10.816Z" style="fill-rule:nonzero;"/><path d="M276.243,22.081c-0.097,-0.67 -0.366,-1.176 -0.805,-1.517c-0.439,-0.342 -0.994,-0.513 -1.663,-0.513c-0.307,0 -0.635,0.052 -0.983,0.157c-0.349,0.105 -0.67,0.3 -0.963,0.586c-0.293,0.286 -0.537,0.683 -0.732,1.192c-0.195,0.509 -0.293,1.175 -0.293,1.998c0,0.447 0.052,0.893 0.157,1.339c0.105,0.447 0.272,0.844 0.502,1.193c0.23,0.348 0.527,0.631 0.889,0.847c0.363,0.216 0.802,0.324 1.318,0.324c0.698,0 1.273,-0.216 1.726,-0.648c0.453,-0.433 0.736,-1.039 0.847,-1.82l2.385,0c-0.223,1.408 -0.756,2.486 -1.6,3.232c-0.844,0.746 -1.963,1.119 -3.358,1.119c-0.851,0 -1.6,-0.143 -2.249,-0.429c-0.648,-0.286 -1.196,-0.676 -1.642,-1.171c-0.446,-0.495 -0.785,-1.085 -1.015,-1.768c-0.23,-0.683 -0.345,-1.423 -0.345,-2.218c0,-0.809 0.112,-1.569 0.335,-2.28c0.223,-0.711 0.558,-1.329 1.004,-1.852c0.446,-0.523 1.001,-0.934 1.663,-1.234c0.663,-0.3 1.44,-0.45 2.333,-0.45c0.628,0 1.224,0.081 1.789,0.241c0.564,0.16 1.067,0.401 1.506,0.722c0.439,0.32 0.798,0.725 1.077,1.213c0.279,0.488 0.447,1.067 0.502,1.737l-2.385,0Z" style="fill-rule:nonzero;"/><path d="M288.001,22.917c-0.028,-0.376 -0.108,-0.739 -0.241,-1.088c-0.132,-0.348 -0.313,-0.652 -0.543,-0.91c-0.231,-0.258 -0.51,-0.467 -0.837,-0.627c-0.328,-0.161 -0.694,-0.241 -1.099,-0.241c-0.418,0 -0.798,0.073 -1.14,0.22c-0.342,0.146 -0.634,0.349 -0.879,0.607c-0.244,0.258 -0.439,0.561 -0.585,0.91c-0.147,0.348 -0.227,0.725 -0.241,1.129l5.565,0Zm-5.565,1.569c0,0.419 0.059,0.823 0.178,1.214c0.118,0.39 0.296,0.732 0.533,1.025c0.238,0.293 0.537,0.526 0.9,0.701c0.363,0.174 0.795,0.261 1.297,0.261c0.697,0 1.259,-0.15 1.684,-0.449c0.426,-0.3 0.743,-0.75 0.952,-1.35l2.26,0c-0.126,0.586 -0.342,1.109 -0.649,1.569c-0.307,0.46 -0.676,0.848 -1.109,1.161c-0.432,0.314 -0.917,0.551 -1.454,0.712c-0.537,0.16 -1.098,0.24 -1.684,0.24c-0.851,0 -1.604,-0.139 -2.259,-0.418c-0.656,-0.279 -1.21,-0.67 -1.664,-1.172c-0.453,-0.502 -0.795,-1.102 -1.025,-1.799c-0.23,-0.697 -0.345,-1.464 -0.345,-2.301c0,-0.767 0.122,-1.496 0.366,-2.187c0.244,-0.69 0.593,-1.297 1.046,-1.82c0.454,-0.523 1.001,-0.938 1.643,-1.244c0.641,-0.307 1.366,-0.461 2.175,-0.461c0.851,0 1.615,0.178 2.291,0.534c0.677,0.355 1.238,0.826 1.684,1.412c0.447,0.586 0.771,1.259 0.973,2.019c0.202,0.76 0.255,1.544 0.157,2.353l-7.95,0Z" style="fill-rule:nonzero;"/><path d="M109.671,34.014l13.368,0" style="fill:none;stroke:#000;stroke-width:2px;"/></g></svg>