<?xml version="1.0" encoding="UTF-8" standalone="no"?><!DOCTYPE svg PUBLIC "-//W3C//DTD SVG 1.1//EN" "http://www.w3.org/Graphics/SVG/1.1/DTD/svg11.dtd"><svg width="50px" height="50px" viewBox="0 0 50 50" version="1.1" xmlns="http://www.w3.org/2000/svg" xmlns:xlink="http://www.w3.org/1999/xlink" xml:space="preserve" xmlns:serif="http://www.serif.com/" style="fill-rule:evenodd;clip-rule:evenodd;stroke-linejoin:round;stroke-miterlimit:1.5;"><g><path d="M30.862,21.117c-0.159,-0.62 -0.379,-1.19 -0.659,-1.71c-0.28,-0.519 -0.64,-0.969 -1.08,-1.349c-0.44,-0.38 -0.954,-0.675 -1.544,-0.885c-0.59,-0.21 -1.275,-0.314 -2.054,-0.314c-1.14,0 -2.124,0.229 -2.954,0.689c-0.83,0.46 -1.504,1.075 -2.024,1.844c-0.52,0.77 -0.905,1.645 -1.155,2.624c-0.249,0.98 -0.374,1.979 -0.374,2.999c0,1.02 0.125,2.019 0.374,2.999c0.25,0.979 0.635,1.854 1.155,2.624c0.52,0.769 1.194,1.384 2.024,1.844c0.83,0.46 1.814,0.689 2.954,0.689c0.839,0 1.579,-0.144 2.219,-0.434c0.64,-0.29 1.189,-0.69 1.649,-1.2c0.46,-0.51 0.82,-1.104 1.08,-1.784c0.26,-0.68 0.429,-1.409 0.509,-2.189l3.659,0c-0.08,1.279 -0.355,2.449 -0.825,3.508c-0.47,1.06 -1.104,1.975 -1.904,2.744c-0.8,0.77 -1.739,1.365 -2.819,1.784c-1.079,0.42 -2.269,0.63 -3.568,0.63c-1.6,0 -3.034,-0.295 -4.303,-0.884c-1.27,-0.59 -2.344,-1.395 -3.224,-2.414c-0.88,-1.02 -1.554,-2.209 -2.024,-3.569c-0.47,-1.359 -0.705,-2.809 -0.705,-4.348c0,-1.519 0.235,-2.959 0.705,-4.318c0.47,-1.36 1.144,-2.549 2.024,-3.569c0.88,-1.019 1.954,-1.829 3.224,-2.429c1.269,-0.599 2.703,-0.899 4.303,-0.899c1.199,0 2.329,0.165 3.388,0.495c1.06,0.329 1.994,0.809 2.804,1.439c0.81,0.63 1.464,1.394 1.964,2.294c0.5,0.9 0.81,1.929 0.93,3.089l-3.749,0Z" style="fill-rule:nonzero;"/><path d="M15.419,45.674l19.162,0" style="fill:none;stroke:#000;stroke-width:2px;"/></g></svg>
