<?xml version="1.0" encoding="UTF-8" standalone="no"?><!DOCTYPE svg PUBLIC "-//W3C//DTD SVG 1.1//EN" "http://www.w3.org/Graphics/SVG/1.1/DTD/svg11.dtd"><svg width="400px" height="48px" viewBox="0 0 400 48" version="1.1" xmlns="http://www.w3.org/2000/svg" xmlns:xlink="http://www.w3.org/1999/xlink" xml:space="preserve" xmlns:serif="http://www.serif.com/" style="fill-rule:evenodd;clip-rule:evenodd;stroke-linejoin:round;stroke-miterlimit:1.5;"><rect id="Artboard1" x="0" y="0" width="400" height="47.998" style="fill:none;"/><g><path d="M23.47,17.282c-0.16,-0.62 -0.38,-1.19 -0.66,-1.71c-0.28,-0.519 -0.64,-0.969 -1.079,-1.349c-0.44,-0.38 -0.955,-0.675 -1.545,-0.885c-0.589,-0.209 -1.274,-0.314 -2.054,-0.314c-1.139,0 -2.124,0.229 -2.954,0.689c-0.829,0.46 -1.504,1.075 -2.024,1.844c-0.519,0.77 -0.904,1.645 -1.154,2.624c-0.25,0.98 -0.375,1.98 -0.375,2.999c0,1.02 0.125,2.019 0.375,2.999c0.25,0.979 0.635,1.854 1.154,2.624c0.52,0.769 1.195,1.384 2.024,1.844c0.83,0.46 1.815,0.69 2.954,0.69c0.84,0 1.579,-0.145 2.219,-0.435c0.64,-0.29 1.19,-0.69 1.649,-1.2c0.46,-0.51 0.82,-1.104 1.08,-1.784c0.26,-0.68 0.43,-1.409 0.51,-2.189l3.658,0c-0.08,1.279 -0.355,2.449 -0.824,3.508c-0.47,1.06 -1.105,1.975 -1.905,2.744c-0.799,0.77 -1.739,1.365 -2.818,1.785c-1.08,0.419 -2.269,0.629 -3.569,0.629c-1.599,0 -3.034,-0.295 -4.303,-0.884c-1.269,-0.59 -2.344,-1.395 -3.224,-2.414c-0.879,-1.02 -1.554,-2.209 -2.024,-3.569c-0.47,-1.359 -0.704,-2.809 -0.704,-4.348c0,-1.519 0.234,-2.959 0.704,-4.318c0.47,-1.359 1.145,-2.549 2.024,-3.569c0.88,-1.019 1.955,-1.829 3.224,-2.428c1.269,-0.6 2.704,-0.9 4.303,-0.9c1.2,0 2.329,0.165 3.389,0.495c1.059,0.33 1.994,0.809 2.803,1.439c0.81,0.63 1.465,1.394 1.965,2.294c0.499,0.9 0.809,1.929 0.929,3.089l-3.748,0Z" style="fill-rule:nonzero;"/><path d="M37.294,32.305c-1.24,0 -2.344,-0.205 -3.314,-0.614c-0.969,-0.41 -1.789,-0.975 -2.459,-1.695c-0.669,-0.719 -1.179,-1.579 -1.529,-2.579c-0.35,-0.999 -0.525,-2.099 -0.525,-3.298c0,-1.18 0.175,-2.269 0.525,-3.269c0.35,-0.999 0.86,-1.859 1.529,-2.579c0.67,-0.719 1.49,-1.284 2.459,-1.694c0.97,-0.41 2.074,-0.615 3.314,-0.615c1.239,0 2.344,0.205 3.313,0.615c0.97,0.41 1.79,0.975 2.459,1.694c0.67,0.72 1.18,1.58 1.53,2.579c0.35,1 0.525,2.089 0.525,3.269c0,1.199 -0.175,2.299 -0.525,3.298c-0.35,1 -0.86,1.86 -1.53,2.579c-0.669,0.72 -1.489,1.285 -2.459,1.695c-0.969,0.409 -2.074,0.614 -3.313,0.614Zm0,-2.699c0.76,0 1.419,-0.159 1.979,-0.479c0.56,-0.32 1.02,-0.74 1.379,-1.26c0.36,-0.52 0.625,-1.104 0.795,-1.754c0.17,-0.65 0.255,-1.314 0.255,-1.994c0,-0.66 -0.085,-1.32 -0.255,-1.979c-0.17,-0.66 -0.435,-1.245 -0.795,-1.755c-0.359,-0.509 -0.819,-0.924 -1.379,-1.244c-0.56,-0.32 -1.219,-0.48 -1.979,-0.48c-0.76,0 -1.419,0.16 -1.979,0.48c-0.56,0.32 -1.02,0.735 -1.38,1.244c-0.359,0.51 -0.624,1.095 -0.794,1.755c-0.17,0.659 -0.255,1.319 -0.255,1.979c0,0.68 0.085,1.344 0.255,1.994c0.17,0.65 0.435,1.234 0.794,1.754c0.36,0.52 0.82,0.94 1.38,1.26c0.56,0.32 1.219,0.479 1.979,0.479Z" style="fill-rule:nonzero;"/><rect x="48.059" y="10.475" width="3.419" height="21.411" style="fill-rule:nonzero;"/><path d="M69.8,31.885l-3.239,0l0,-2.099l-0.06,0c-0.459,0.9 -1.129,1.545 -2.009,1.935c-0.879,0.389 -1.809,0.584 -2.789,0.584c-1.219,0 -2.284,-0.215 -3.193,-0.644c-0.91,-0.43 -1.665,-1.015 -2.264,-1.755c-0.6,-0.739 -1.05,-1.614 -1.35,-2.624c-0.3,-1.009 -0.449,-2.094 -0.449,-3.253c0,-1.4 0.189,-2.609 0.569,-3.629c0.38,-1.019 0.885,-1.859 1.515,-2.519c0.629,-0.659 1.349,-1.144 2.159,-1.454c0.809,-0.31 1.634,-0.465 2.474,-0.465c0.479,0 0.969,0.045 1.469,0.135c0.5,0.09 0.98,0.235 1.439,0.435c0.46,0.2 0.885,0.455 1.275,0.765c0.39,0.31 0.715,0.674 0.974,1.094l0.06,0l0,-7.916l3.419,0l0,21.41Zm-11.935,-7.586c0,0.659 0.085,1.309 0.255,1.949c0.17,0.64 0.43,1.209 0.78,1.709c0.349,0.5 0.794,0.9 1.334,1.2c0.54,0.3 1.18,0.449 1.919,0.449c0.76,0 1.415,-0.159 1.964,-0.479c0.55,-0.32 1,-0.74 1.35,-1.26c0.35,-0.52 0.61,-1.104 0.779,-1.754c0.17,-0.65 0.255,-1.314 0.255,-1.994c0,-1.719 -0.384,-3.059 -1.154,-4.018c-0.77,-0.96 -1.814,-1.44 -3.134,-1.44c-0.799,0 -1.474,0.165 -2.024,0.495c-0.55,0.33 -1,0.76 -1.349,1.289c-0.35,0.53 -0.6,1.13 -0.75,1.8c-0.15,0.669 -0.225,1.354 -0.225,2.054Z" style="fill-rule:nonzero;"/><path d="M80.295,10.475l17.333,0l0,3.238l-6.807,0l0,18.172l-3.749,0l0,-18.172l-6.777,0l0,-3.238Z" style="fill-rule:nonzero;"/><path d="M94.599,16.382l3.749,0l4.048,11.575l0.06,0l3.928,-11.575l3.569,0l-6.028,16.343c-0.28,0.7 -0.555,1.37 -0.824,2.009c-0.27,0.64 -0.6,1.205 -0.99,1.695c-0.39,0.489 -0.875,0.879 -1.454,1.169c-0.58,0.29 -1.32,0.435 -2.219,0.435c-0.8,0 -1.59,-0.06 -2.369,-0.18l0,-2.879c0.28,0.04 0.549,0.085 0.809,0.135c0.26,0.05 0.53,0.075 0.81,0.075c0.4,0 0.73,-0.05 0.99,-0.15c0.259,-0.1 0.474,-0.245 0.644,-0.435c0.17,-0.19 0.315,-0.415 0.435,-0.674c0.12,-0.26 0.23,-0.56 0.33,-0.9l0.39,-1.2l-5.878,-15.443Z" style="fill-rule:nonzero;"/><path d="M111.962,16.382l3.238,0l0,2.099l0.06,0c0.48,-0.899 1.15,-1.544 2.01,-1.934c0.859,-0.39 1.789,-0.585 2.788,-0.585c1.22,0 2.284,0.215 3.194,0.645c0.91,0.43 1.664,1.02 2.264,1.769c0.6,0.75 1.05,1.625 1.349,2.624c0.3,1 0.45,2.069 0.45,3.209c0,1.039 -0.135,2.049 -0.405,3.028c-0.27,0.98 -0.679,1.845 -1.229,2.594c-0.55,0.75 -1.245,1.35 -2.084,1.8c-0.84,0.449 -1.829,0.674 -2.969,0.674c-0.5,0 -1,-0.045 -1.499,-0.135c-0.5,-0.09 -0.98,-0.235 -1.44,-0.434c-0.459,-0.2 -0.884,-0.455 -1.274,-0.765c-0.39,-0.31 -0.715,-0.675 -0.975,-1.095l-0.06,0l0,7.737l-3.418,0l0,-21.231Zm11.935,7.767c0,-0.7 -0.09,-1.38 -0.27,-2.039c-0.18,-0.66 -0.45,-1.245 -0.81,-1.755c-0.36,-0.509 -0.81,-0.919 -1.349,-1.229c-0.54,-0.31 -1.16,-0.465 -1.859,-0.465c-1.44,0 -2.524,0.5 -3.254,1.5c-0.73,0.999 -1.095,2.329 -1.095,3.988c0,0.779 0.095,1.504 0.285,2.174c0.19,0.67 0.475,1.244 0.855,1.724c0.38,0.48 0.835,0.86 1.364,1.14c0.53,0.28 1.145,0.419 1.845,0.419c0.779,0 1.439,-0.159 1.979,-0.479c0.539,-0.32 0.984,-0.735 1.334,-1.245c0.35,-0.51 0.6,-1.089 0.75,-1.739c0.15,-0.65 0.225,-1.314 0.225,-1.994Z" style="fill-rule:nonzero;"/><path d="M140.839,22.769c-0.04,-0.539 -0.155,-1.059 -0.344,-1.559c-0.19,-0.5 -0.45,-0.935 -0.78,-1.304c-0.33,-0.37 -0.73,-0.67 -1.2,-0.9c-0.469,-0.23 -0.994,-0.345 -1.574,-0.345c-0.6,0 -1.144,0.105 -1.634,0.315c-0.49,0.21 -0.91,0.5 -1.26,0.87c-0.35,0.369 -0.629,0.804 -0.839,1.304c-0.21,0.5 -0.325,1.04 -0.345,1.619l7.976,0Zm-7.976,2.249c0,0.6 0.085,1.18 0.255,1.74c0.17,0.559 0.425,1.049 0.764,1.469c0.34,0.42 0.77,0.755 1.29,1.005c0.52,0.25 1.139,0.374 1.859,0.374c1,0 1.804,-0.214 2.414,-0.644c0.61,-0.43 1.065,-1.075 1.364,-1.934l3.239,0c-0.18,0.839 -0.49,1.589 -0.93,2.249c-0.439,0.659 -0.969,1.214 -1.589,1.664c-0.62,0.45 -1.314,0.79 -2.084,1.019c-0.77,0.23 -1.574,0.345 -2.414,0.345c-1.219,0 -2.299,-0.2 -3.239,-0.599c-0.939,-0.4 -1.734,-0.96 -2.384,-1.68c-0.649,-0.719 -1.139,-1.579 -1.469,-2.579c-0.33,-0.999 -0.495,-2.099 -0.495,-3.298c0,-1.1 0.175,-2.144 0.525,-3.134c0.35,-0.989 0.85,-1.859 1.499,-2.609c0.65,-0.749 1.435,-1.344 2.354,-1.784c0.92,-0.44 1.96,-0.66 3.119,-0.66c1.22,0 2.314,0.255 3.284,0.765c0.969,0.51 1.774,1.184 2.414,2.024c0.639,0.84 1.104,1.804 1.394,2.894c0.29,1.089 0.365,2.214 0.225,3.373l-11.395,0Z" style="fill-rule:nonzero;"/><path d="M155.683,10.475l9.446,0c1.519,0 2.759,0.22 3.718,0.659c0.96,0.44 1.7,0.99 2.219,1.65c0.52,0.659 0.875,1.379 1.065,2.159c0.19,0.779 0.285,1.499 0.285,2.159c0,0.66 -0.095,1.374 -0.285,2.144c-0.19,0.77 -0.545,1.484 -1.065,2.144c-0.519,0.66 -1.259,1.204 -2.219,1.634c-0.959,0.43 -2.199,0.645 -3.718,0.645l-5.698,0l0,8.216l-3.748,0l0,-21.41Zm3.748,10.135l5.488,0c0.42,0 0.85,-0.06 1.289,-0.18c0.44,-0.12 0.845,-0.314 1.215,-0.584c0.37,-0.27 0.67,-0.63 0.9,-1.08c0.229,-0.45 0.344,-1.014 0.344,-1.694c0,-0.7 -0.1,-1.28 -0.299,-1.739c-0.2,-0.46 -0.47,-0.825 -0.81,-1.095c-0.34,-0.27 -0.73,-0.455 -1.17,-0.555c-0.439,-0.1 -0.909,-0.15 -1.409,-0.15l-5.548,0l0,7.077Z" style="fill-rule:nonzero;"/><path d="M175.205,16.382l3.208,0l0,2.999l0.06,0c0.1,-0.42 0.295,-0.83 0.585,-1.23c0.29,-0.399 0.64,-0.764 1.049,-1.094c0.41,-0.33 0.865,-0.595 1.365,-0.795c0.5,-0.2 1.009,-0.3 1.529,-0.3c0.4,0 0.675,0.01 0.825,0.03c0.15,0.02 0.305,0.04 0.465,0.06l0,3.299c-0.24,-0.04 -0.485,-0.075 -0.735,-0.105c-0.25,-0.03 -0.495,-0.045 -0.735,-0.045c-0.579,0 -1.124,0.115 -1.634,0.345c-0.51,0.23 -0.955,0.57 -1.334,1.019c-0.38,0.45 -0.68,1.005 -0.9,1.665c-0.22,0.659 -0.33,1.419 -0.33,2.279l0,7.376l-3.418,0l0,-15.503Z" style="fill-rule:nonzero;"/><path d="M198.744,28.437c0,0.42 0.055,0.72 0.165,0.9c0.11,0.179 0.325,0.269 0.645,0.269c0.1,0 0.22,0 0.36,0c0.14,0 0.3,-0.02 0.48,-0.06l0,2.369c-0.12,0.04 -0.275,0.085 -0.465,0.135c-0.19,0.05 -0.385,0.095 -0.585,0.135c-0.2,0.04 -0.4,0.07 -0.6,0.09c-0.199,0.02 -0.369,0.03 -0.509,0.03c-0.7,0 -1.28,-0.14 -1.74,-0.42c-0.459,-0.279 -0.759,-0.769 -0.899,-1.469c-0.68,0.66 -1.515,1.14 -2.504,1.439c-0.99,0.3 -1.944,0.45 -2.864,0.45c-0.7,0 -1.369,-0.095 -2.009,-0.285c-0.64,-0.19 -1.204,-0.469 -1.694,-0.839c-0.49,-0.37 -0.88,-0.84 -1.17,-1.41c-0.29,-0.569 -0.435,-1.234 -0.435,-1.994c0,-0.959 0.175,-1.739 0.525,-2.339c0.35,-0.6 0.81,-1.069 1.38,-1.409c0.569,-0.34 1.209,-0.585 1.919,-0.735c0.709,-0.15 1.424,-0.265 2.144,-0.345c0.62,-0.12 1.209,-0.205 1.769,-0.255c0.56,-0.05 1.055,-0.135 1.484,-0.254c0.43,-0.12 0.77,-0.305 1.02,-0.555c0.25,-0.25 0.375,-0.625 0.375,-1.125c0,-0.44 -0.105,-0.799 -0.315,-1.079c-0.21,-0.28 -0.47,-0.495 -0.78,-0.645c-0.31,-0.15 -0.654,-0.25 -1.034,-0.3c-0.38,-0.05 -0.74,-0.075 -1.08,-0.075c-0.959,0 -1.749,0.2 -2.369,0.6c-0.619,0.4 -0.969,1.019 -1.049,1.859l-3.419,0c0.06,-0.999 0.3,-1.829 0.72,-2.489c0.42,-0.66 0.954,-1.189 1.604,-1.589c0.65,-0.4 1.385,-0.68 2.204,-0.84c0.82,-0.16 1.66,-0.24 2.519,-0.24c0.76,0 1.509,0.08 2.249,0.24c0.74,0.16 1.405,0.42 1.994,0.78c0.59,0.36 1.065,0.825 1.425,1.394c0.36,0.57 0.539,1.265 0.539,2.084l0,7.977Zm-3.418,-4.318c-0.52,0.34 -1.16,0.545 -1.919,0.615c-0.76,0.07 -1.52,0.174 -2.279,0.314c-0.36,0.06 -0.71,0.145 -1.05,0.255c-0.34,0.11 -0.64,0.26 -0.899,0.45c-0.26,0.19 -0.465,0.44 -0.615,0.75c-0.15,0.31 -0.225,0.684 -0.225,1.124c0,0.38 0.11,0.7 0.33,0.96c0.22,0.26 0.485,0.465 0.794,0.615c0.31,0.15 0.65,0.255 1.02,0.314c0.37,0.06 0.705,0.09 1.005,0.09c0.379,0 0.789,-0.05 1.229,-0.149c0.44,-0.1 0.855,-0.27 1.245,-0.51c0.389,-0.24 0.714,-0.545 0.974,-0.915c0.26,-0.37 0.39,-0.825 0.39,-1.364l0,-2.549Z" style="fill-rule:nonzero;"/><path d="M212.898,21.57c-0.14,-0.96 -0.524,-1.684 -1.154,-2.174c-0.63,-0.49 -1.425,-0.735 -2.384,-0.735c-0.44,0 -0.91,0.075 -1.409,0.225c-0.5,0.15 -0.96,0.43 -1.38,0.84c-0.42,0.41 -0.77,0.979 -1.049,1.709c-0.28,0.73 -0.42,1.684 -0.42,2.864c0,0.639 0.075,1.279 0.225,1.919c0.15,0.64 0.389,1.209 0.719,1.709c0.33,0.5 0.755,0.905 1.275,1.215c0.52,0.31 1.149,0.464 1.889,0.464c1,0 1.824,-0.309 2.474,-0.929c0.65,-0.62 1.054,-1.49 1.214,-2.609l3.419,0c-0.32,2.019 -1.085,3.563 -2.294,4.633c-1.21,1.07 -2.814,1.604 -4.813,1.604c-1.219,0 -2.294,-0.205 -3.224,-0.614c-0.929,-0.41 -1.714,-0.97 -2.354,-1.68c-0.639,-0.709 -1.124,-1.554 -1.454,-2.534c-0.33,-0.979 -0.495,-2.039 -0.495,-3.178c0,-1.16 0.16,-2.249 0.48,-3.269c0.32,-1.019 0.8,-1.904 1.439,-2.654c0.64,-0.749 1.435,-1.339 2.384,-1.769c0.95,-0.43 2.064,-0.645 3.344,-0.645c0.9,0 1.754,0.115 2.564,0.345c0.809,0.23 1.529,0.575 2.159,1.035c0.63,0.46 1.144,1.039 1.544,1.739c0.4,0.7 0.64,1.529 0.72,2.489l-3.419,0Z" style="fill-rule:nonzero;"/><path d="M217.546,16.382l2.579,0l0,-4.648l3.419,0l0,4.648l3.088,0l0,2.549l-3.088,0l0,8.276c0,0.36 0.015,0.67 0.045,0.93c0.03,0.26 0.1,0.48 0.21,0.66c0.11,0.18 0.275,0.315 0.494,0.405c0.22,0.09 0.52,0.135 0.9,0.135c0.24,0 0.48,-0.005 0.72,-0.015c0.24,-0.01 0.48,-0.045 0.719,-0.105l0,2.638c-0.379,0.04 -0.749,0.08 -1.109,0.12c-0.36,0.04 -0.73,0.06 -1.11,0.06c-0.899,0 -1.624,-0.085 -2.174,-0.254c-0.549,-0.17 -0.979,-0.42 -1.289,-0.75c-0.31,-0.33 -0.52,-0.745 -0.63,-1.245c-0.11,-0.499 -0.175,-1.069 -0.195,-1.709l0,-9.146l-2.579,0l0,-2.549Z" style="fill-rule:nonzero;"/><path d="M229.181,10.475l3.419,0l0,3.238l-3.419,0l0,-3.238Zm0,5.907l3.419,0l0,15.503l-3.419,0l0,-15.503Z" style="fill-rule:nonzero;"/><path d="M246.784,21.57c-0.14,-0.96 -0.525,-1.684 -1.155,-2.174c-0.629,-0.49 -1.424,-0.735 -2.384,-0.735c-0.439,0 -0.909,0.075 -1.409,0.225c-0.5,0.15 -0.96,0.43 -1.379,0.84c-0.42,0.41 -0.77,0.979 -1.05,1.709c-0.28,0.73 -0.42,1.684 -0.42,2.864c0,0.639 0.075,1.279 0.225,1.919c0.15,0.64 0.39,1.209 0.72,1.709c0.33,0.5 0.754,0.905 1.274,1.215c0.52,0.31 1.15,0.464 1.889,0.464c1,0 1.825,-0.309 2.474,-0.929c0.65,-0.62 1.055,-1.49 1.215,-2.609l3.418,0c-0.32,2.019 -1.084,3.563 -2.294,4.633c-1.209,1.07 -2.813,1.604 -4.813,1.604c-1.219,0 -2.294,-0.205 -3.223,-0.614c-0.93,-0.41 -1.714,-0.97 -2.354,-1.68c-0.64,-0.709 -1.125,-1.554 -1.455,-2.534c-0.329,-0.979 -0.494,-2.039 -0.494,-3.178c0,-1.16 0.16,-2.249 0.479,-3.269c0.32,-1.019 0.8,-1.904 1.44,-2.654c0.64,-0.749 1.434,-1.339 2.384,-1.769c0.949,-0.43 2.064,-0.645 3.343,-0.645c0.9,0 1.755,0.115 2.564,0.345c0.81,0.23 1.53,0.575 2.159,1.035c0.63,0.46 1.145,1.039 1.545,1.739c0.399,0.7 0.639,1.529 0.719,2.489l-3.418,0Z" style="fill-rule:nonzero;"/><path d="M263.637,22.769c-0.04,-0.539 -0.155,-1.059 -0.345,-1.559c-0.19,-0.5 -0.45,-0.935 -0.78,-1.304c-0.33,-0.37 -0.73,-0.67 -1.199,-0.9c-0.47,-0.23 -0.995,-0.345 -1.575,-0.345c-0.599,0 -1.144,0.105 -1.634,0.315c-0.49,0.21 -0.91,0.5 -1.26,0.87c-0.349,0.369 -0.629,0.804 -0.839,1.304c-0.21,0.5 -0.325,1.04 -0.345,1.619l7.977,0Zm-7.977,2.249c0,0.6 0.085,1.18 0.255,1.74c0.17,0.559 0.425,1.049 0.765,1.469c0.339,0.42 0.769,0.755 1.289,1.005c0.52,0.25 1.14,0.374 1.859,0.374c1,0 1.804,-0.214 2.414,-0.644c0.61,-0.43 1.065,-1.075 1.365,-1.934l3.238,0c-0.18,0.839 -0.49,1.589 -0.929,2.249c-0.44,0.659 -0.97,1.214 -1.59,1.664c-0.619,0.45 -1.314,0.79 -2.084,1.019c-0.769,0.23 -1.574,0.345 -2.414,0.345c-1.219,0 -2.299,-0.2 -3.238,-0.599c-0.94,-0.4 -1.735,-0.96 -2.384,-1.68c-0.65,-0.719 -1.14,-1.579 -1.47,-2.579c-0.33,-0.999 -0.495,-2.099 -0.495,-3.298c0,-1.1 0.175,-2.144 0.525,-3.134c0.35,-0.989 0.85,-1.859 1.5,-2.609c0.649,-0.749 1.434,-1.344 2.354,-1.784c0.919,-0.44 1.959,-0.66 3.118,-0.66c1.22,0 2.314,0.255 3.284,0.765c0.969,0.51 1.774,1.184 2.414,2.024c0.64,0.84 1.104,1.804 1.394,2.894c0.29,1.089 0.365,2.214 0.225,3.373l-11.395,0Z" style="fill-rule:nonzero;"/><path d="M8.026,38.674l19.162,0" style="fill:none;stroke:#000;stroke-width:2px;"/></g></svg>
