<?xml version="1.0" encoding="UTF-8" standalone="no"?><!DOCTYPE svg PUBLIC "-//W3C//DTD SVG 1.1//EN" "http://www.w3.org/Graphics/SVG/1.1/DTD/svg11.dtd"><svg width="400px" height="48px" viewBox="0 0 400 48" version="1.1" xmlns="http://www.w3.org/2000/svg" xmlns:xlink="http://www.w3.org/1999/xlink" xml:space="preserve" xmlns:serif="http://www.serif.com/" style="fill-rule:evenodd;clip-rule:evenodd;stroke-linejoin:round;stroke-miterlimit:1.5;"><rect id="Artboard1" x="0" y="0" width="400" height="47.998" style="fill:none;"/><g><path d="M120.2,19.394c-0.112,-0.433 -0.265,-0.832 -0.461,-1.196c-0.196,-0.363 -0.448,-0.678 -0.756,-0.944c-0.308,-0.266 -0.668,-0.472 -1.081,-0.619c-0.412,-0.147 -0.891,-0.221 -1.437,-0.221c-0.797,0 -1.486,0.161 -2.067,0.483c-0.581,0.322 -1.053,0.752 -1.417,1.291c-0.363,0.538 -0.633,1.15 -0.808,1.836c-0.174,0.685 -0.262,1.385 -0.262,2.099c0,0.713 0.088,1.413 0.262,2.098c0.175,0.686 0.445,1.298 0.808,1.836c0.364,0.539 0.836,0.969 1.417,1.291c0.581,0.322 1.27,0.483 2.067,0.483c0.588,0 1.105,-0.102 1.553,-0.305c0.448,-0.203 0.832,-0.482 1.154,-0.839c0.322,-0.357 0.574,-0.773 0.756,-1.249c0.181,-0.475 0.3,-0.986 0.356,-1.532l2.561,0c-0.056,0.896 -0.249,1.714 -0.578,2.456c-0.328,0.741 -0.773,1.381 -1.332,1.92c-0.56,0.538 -1.217,0.955 -1.973,1.248c-0.755,0.294 -1.588,0.441 -2.497,0.441c-1.119,0 -2.123,-0.206 -3.011,-0.619c-0.889,-0.413 -1.641,-0.976 -2.256,-1.689c-0.616,-0.714 -1.088,-1.546 -1.417,-2.498c-0.329,-0.951 -0.493,-1.965 -0.493,-3.042c0,-1.064 0.164,-2.071 0.493,-3.022c0.329,-0.952 0.801,-1.784 1.417,-2.498c0.615,-0.713 1.367,-1.28 2.256,-1.699c0.888,-0.42 1.892,-0.63 3.011,-0.63c0.839,0 1.63,0.115 2.371,0.346c0.742,0.231 1.396,0.567 1.962,1.008c0.567,0.44 1.025,0.975 1.375,1.605c0.35,0.629 0.567,1.35 0.651,2.161l-2.624,0Z" style="fill-rule:nonzero;"/><path d="M129.875,29.908c-0.868,0 -1.641,-0.143 -2.319,-0.43c-0.679,-0.287 -1.252,-0.682 -1.721,-1.186c-0.469,-0.503 -0.826,-1.105 -1.07,-1.805c-0.245,-0.699 -0.368,-1.469 -0.368,-2.308c0,-0.825 0.123,-1.588 0.368,-2.287c0.244,-0.7 0.601,-1.301 1.07,-1.805c0.469,-0.504 1.042,-0.899 1.721,-1.186c0.678,-0.287 1.451,-0.43 2.319,-0.43c0.867,0 1.64,0.143 2.318,0.43c0.679,0.287 1.253,0.682 1.721,1.186c0.469,0.504 0.826,1.105 1.071,1.805c0.244,0.699 0.367,1.462 0.367,2.287c0,0.839 -0.123,1.609 -0.367,2.308c-0.245,0.7 -0.602,1.302 -1.071,1.805c-0.468,0.504 -1.042,0.899 -1.721,1.186c-0.678,0.287 -1.451,0.43 -2.318,0.43Zm0,-1.889c0.531,0 0.993,-0.112 1.385,-0.335c0.391,-0.224 0.713,-0.518 0.965,-0.882c0.252,-0.364 0.437,-0.773 0.556,-1.227c0.119,-0.455 0.178,-0.92 0.178,-1.396c0,-0.462 -0.059,-0.923 -0.178,-1.385c-0.119,-0.462 -0.304,-0.871 -0.556,-1.228c-0.252,-0.356 -0.574,-0.647 -0.965,-0.87c-0.392,-0.224 -0.854,-0.336 -1.385,-0.336c-0.532,0 -0.994,0.112 -1.385,0.336c-0.392,0.223 -0.714,0.514 -0.966,0.87c-0.252,0.357 -0.437,0.766 -0.556,1.228c-0.119,0.462 -0.178,0.923 -0.178,1.385c0,0.476 0.059,0.941 0.178,1.396c0.119,0.454 0.304,0.863 0.556,1.227c0.252,0.364 0.574,0.658 0.966,0.882c0.391,0.223 0.853,0.335 1.385,0.335Z" style="fill-rule:nonzero;"/><rect x="137.408" y="14.631" width="2.392" height="14.984" style="fill-rule:nonzero;"/><path d="M152.623,29.614l-2.267,0l0,-1.469l-0.042,0c-0.321,0.63 -0.79,1.081 -1.406,1.354c-0.615,0.273 -1.266,0.409 -1.951,0.409c-0.854,0 -1.599,-0.15 -2.235,-0.451c-0.637,-0.301 -1.165,-0.71 -1.585,-1.228c-0.419,-0.517 -0.734,-1.129 -0.944,-1.836c-0.21,-0.706 -0.315,-1.465 -0.315,-2.277c0,-0.979 0.133,-1.826 0.399,-2.539c0.266,-0.714 0.619,-1.301 1.06,-1.763c0.44,-0.462 0.944,-0.801 1.511,-1.018c0.566,-0.217 1.143,-0.325 1.731,-0.325c0.336,0 0.678,0.032 1.028,0.094c0.35,0.063 0.686,0.165 1.007,0.305c0.322,0.14 0.62,0.318 0.892,0.535c0.273,0.217 0.501,0.472 0.682,0.766l0.042,0l0,-5.54l2.393,0l0,14.983Zm-8.352,-5.309c0,0.462 0.059,0.916 0.178,1.364c0.119,0.448 0.301,0.846 0.546,1.196c0.244,0.35 0.556,0.63 0.933,0.84c0.378,0.209 0.826,0.314 1.343,0.314c0.532,0 0.99,-0.112 1.375,-0.335c0.385,-0.224 0.699,-0.518 0.944,-0.882c0.245,-0.364 0.427,-0.773 0.546,-1.227c0.119,-0.455 0.178,-0.92 0.178,-1.396c0,-1.203 -0.269,-2.14 -0.808,-2.812c-0.538,-0.671 -1.269,-1.007 -2.193,-1.007c-0.559,0 -1.031,0.115 -1.416,0.346c-0.385,0.231 -0.7,0.532 -0.944,0.902c-0.245,0.371 -0.42,0.791 -0.525,1.259c-0.105,0.469 -0.157,0.948 -0.157,1.438Z" style="fill-rule:nonzero;"/><path d="M159.968,14.631l12.129,0l0,2.266l-4.764,0l0,12.717l-2.623,0l0,-12.717l-4.742,0l0,-2.266Z" style="fill-rule:nonzero;"/><path d="M169.978,18.765l2.623,0l2.833,8.1l0.042,0l2.749,-8.1l2.497,0l-4.218,11.437c-0.196,0.49 -0.388,0.958 -0.577,1.406c-0.189,0.448 -0.42,0.843 -0.693,1.186c-0.272,0.342 -0.612,0.615 -1.017,0.818c-0.406,0.203 -0.924,0.304 -1.553,0.304c-0.56,0 -1.113,-0.042 -1.658,-0.126l0,-2.014c0.196,0.028 0.385,0.059 0.566,0.094c0.182,0.035 0.371,0.053 0.567,0.053c0.28,0 0.511,-0.035 0.693,-0.105c0.181,-0.07 0.332,-0.172 0.451,-0.305c0.119,-0.132 0.22,-0.29 0.304,-0.472c0.084,-0.182 0.161,-0.391 0.231,-0.629l0.273,-0.84l-4.113,-10.807Z" style="fill-rule:nonzero;"/><path d="M182.128,18.765l2.266,0l0,1.469l0.042,0c0.336,-0.63 0.805,-1.081 1.406,-1.354c0.602,-0.273 1.253,-0.409 1.952,-0.409c0.854,0 1.598,0.15 2.235,0.451c0.637,0.301 1.165,0.714 1.584,1.238c0.42,0.525 0.735,1.137 0.945,1.837c0.21,0.699 0.315,1.448 0.315,2.245c0,0.728 -0.095,1.434 -0.284,2.12c-0.189,0.685 -0.475,1.29 -0.86,1.815c-0.385,0.524 -0.871,0.944 -1.459,1.259c-0.587,0.315 -1.28,0.472 -2.077,0.472c-0.35,0 -0.7,-0.031 -1.049,-0.094c-0.35,-0.063 -0.686,-0.165 -1.008,-0.305c-0.322,-0.14 -0.619,-0.318 -0.892,-0.535c-0.272,-0.217 -0.5,-0.472 -0.682,-0.766l-0.042,0l0,5.414l-2.392,0l0,-14.857Zm8.352,5.435c0,-0.49 -0.063,-0.965 -0.189,-1.427c-0.126,-0.462 -0.314,-0.871 -0.566,-1.228c-0.252,-0.356 -0.567,-0.643 -0.945,-0.86c-0.377,-0.217 -0.811,-0.325 -1.301,-0.325c-1.007,0 -1.766,0.349 -2.277,1.049c-0.51,0.7 -0.766,1.63 -0.766,2.791c0,0.546 0.067,1.053 0.2,1.521c0.133,0.469 0.332,0.871 0.598,1.207c0.266,0.336 0.584,0.602 0.955,0.798c0.37,0.195 0.801,0.293 1.29,0.293c0.546,0 1.008,-0.112 1.385,-0.335c0.378,-0.224 0.689,-0.515 0.934,-0.871c0.245,-0.357 0.42,-0.763 0.525,-1.217c0.105,-0.455 0.157,-0.92 0.157,-1.396Z" style="fill-rule:nonzero;"/><path d="M202.337,23.235c-0.028,-0.378 -0.108,-0.742 -0.241,-1.092c-0.133,-0.349 -0.315,-0.654 -0.546,-0.912c-0.231,-0.259 -0.511,-0.469 -0.839,-0.63c-0.329,-0.161 -0.696,-0.241 -1.102,-0.241c-0.42,0 -0.801,0.073 -1.144,0.22c-0.343,0.147 -0.636,0.35 -0.881,0.609c-0.245,0.258 -0.441,0.563 -0.588,0.913c-0.147,0.349 -0.227,0.727 -0.241,1.133l5.582,0Zm-5.582,1.574c0,0.419 0.059,0.825 0.178,1.217c0.119,0.392 0.298,0.734 0.535,1.028c0.238,0.294 0.539,0.528 0.903,0.703c0.363,0.175 0.797,0.262 1.301,0.262c0.699,0 1.262,-0.15 1.689,-0.451c0.427,-0.301 0.745,-0.752 0.955,-1.353l2.266,0c-0.126,0.587 -0.342,1.112 -0.65,1.574c-0.308,0.461 -0.679,0.849 -1.112,1.164c-0.434,0.315 -0.92,0.553 -1.459,0.714c-0.539,0.161 -1.102,0.241 -1.689,0.241c-0.854,0 -1.609,-0.14 -2.267,-0.42c-0.657,-0.279 -1.213,-0.671 -1.668,-1.175c-0.455,-0.503 -0.797,-1.105 -1.028,-1.805c-0.231,-0.699 -0.346,-1.469 -0.346,-2.308c0,-0.769 0.122,-1.5 0.367,-2.193c0.245,-0.692 0.594,-1.301 1.049,-1.826c0.455,-0.524 1.004,-0.94 1.647,-1.248c0.644,-0.308 1.371,-0.462 2.183,-0.462c0.853,0 1.619,0.178 2.298,0.535c0.678,0.357 1.241,0.829 1.689,1.417c0.448,0.587 0.773,1.262 0.976,2.025c0.203,0.762 0.255,1.549 0.157,2.361l-7.974,0Z" style="fill-rule:nonzero;"/><path d="M212.725,14.631l6.61,0c1.063,0 1.931,0.154 2.602,0.461c0.672,0.308 1.189,0.693 1.553,1.155c0.364,0.461 0.612,0.965 0.745,1.511c0.133,0.545 0.199,1.049 0.199,1.511c0,0.461 -0.066,0.961 -0.199,1.5c-0.133,0.539 -0.381,1.039 -0.745,1.5c-0.364,0.462 -0.881,0.843 -1.553,1.144c-0.671,0.301 -1.539,0.451 -2.602,0.451l-3.987,0l0,5.75l-2.623,0l0,-14.983Zm2.623,7.093l3.84,0c0.294,0 0.595,-0.042 0.903,-0.126c0.307,-0.084 0.591,-0.22 0.849,-0.409c0.259,-0.189 0.469,-0.441 0.63,-0.756c0.161,-0.315 0.241,-0.71 0.241,-1.185c0,-0.49 -0.07,-0.896 -0.21,-1.218c-0.139,-0.321 -0.328,-0.577 -0.566,-0.766c-0.238,-0.188 -0.511,-0.318 -0.819,-0.388c-0.307,-0.07 -0.636,-0.105 -0.986,-0.105l-3.882,0l0,4.953Z" style="fill-rule:nonzero;"/><path d="M226.386,18.765l2.246,0l0,2.098l0.042,0c0.069,-0.293 0.206,-0.58 0.409,-0.86c0.203,-0.28 0.447,-0.535 0.734,-0.766c0.287,-0.231 0.605,-0.416 0.955,-0.556c0.35,-0.14 0.707,-0.21 1.07,-0.21c0.28,0 0.472,0.007 0.577,0.021c0.105,0.014 0.214,0.028 0.326,0.042l0,2.308c-0.168,-0.028 -0.34,-0.052 -0.514,-0.073c-0.175,-0.021 -0.347,-0.032 -0.515,-0.032c-0.405,0 -0.787,0.081 -1.143,0.242c-0.357,0.161 -0.668,0.399 -0.934,0.713c-0.266,0.315 -0.476,0.703 -0.63,1.165c-0.154,0.462 -0.231,0.993 -0.231,1.595l0,5.162l-2.392,0l0,-10.849Z" style="fill-rule:nonzero;"/><path d="M242.86,27.201c0,0.294 0.038,0.504 0.115,0.63c0.077,0.125 0.227,0.188 0.451,0.188c0.07,0 0.154,0 0.252,0c0.098,0 0.21,-0.014 0.336,-0.042l0,1.658c-0.084,0.028 -0.193,0.06 -0.325,0.095c-0.133,0.035 -0.27,0.066 -0.41,0.094c-0.14,0.028 -0.279,0.049 -0.419,0.063c-0.14,0.014 -0.259,0.021 -0.357,0.021c-0.49,0 -0.896,-0.098 -1.217,-0.294c-0.322,-0.196 -0.532,-0.538 -0.63,-1.028c-0.476,0.462 -1.06,0.797 -1.752,1.007c-0.693,0.21 -1.361,0.315 -2.004,0.315c-0.49,0 -0.959,-0.066 -1.406,-0.199c-0.448,-0.133 -0.843,-0.329 -1.186,-0.588c-0.343,-0.259 -0.615,-0.587 -0.818,-0.986c-0.203,-0.399 -0.305,-0.864 -0.305,-1.396c0,-0.671 0.123,-1.217 0.368,-1.637c0.244,-0.419 0.566,-0.748 0.965,-0.986c0.399,-0.238 0.846,-0.409 1.343,-0.514c0.497,-0.105 0.997,-0.185 1.5,-0.241c0.434,-0.084 0.847,-0.144 1.239,-0.179c0.391,-0.035 0.738,-0.094 1.038,-0.178c0.301,-0.084 0.539,-0.213 0.714,-0.388c0.175,-0.175 0.262,-0.438 0.262,-0.787c0,-0.308 -0.073,-0.56 -0.22,-0.756c-0.147,-0.196 -0.329,-0.346 -0.546,-0.451c-0.217,-0.105 -0.458,-0.175 -0.724,-0.21c-0.266,-0.035 -0.517,-0.052 -0.755,-0.052c-0.672,0 -1.224,0.14 -1.658,0.419c-0.434,0.28 -0.679,0.714 -0.735,1.302l-2.392,0c0.042,-0.7 0.21,-1.281 0.504,-1.742c0.294,-0.462 0.668,-0.833 1.122,-1.112c0.455,-0.28 0.969,-0.476 1.543,-0.588c0.573,-0.112 1.161,-0.168 1.763,-0.168c0.531,0 1.056,0.056 1.574,0.168c0.517,0.112 0.982,0.294 1.395,0.546c0.413,0.251 0.745,0.577 0.997,0.975c0.252,0.399 0.378,0.885 0.378,1.459l0,5.582Zm-2.393,-3.022c-0.363,0.238 -0.811,0.381 -1.343,0.43c-0.531,0.049 -1.063,0.123 -1.595,0.221c-0.251,0.042 -0.496,0.101 -0.734,0.178c-0.238,0.077 -0.448,0.182 -0.63,0.315c-0.182,0.133 -0.325,0.308 -0.43,0.524c-0.105,0.217 -0.157,0.48 -0.157,0.787c0,0.266 0.077,0.49 0.231,0.672c0.153,0.182 0.339,0.325 0.556,0.43c0.216,0.105 0.454,0.178 0.713,0.22c0.259,0.042 0.493,0.063 0.703,0.063c0.266,0 0.553,-0.035 0.861,-0.105c0.307,-0.069 0.598,-0.188 0.87,-0.356c0.273,-0.168 0.501,-0.382 0.682,-0.64c0.182,-0.259 0.273,-0.577 0.273,-0.955l0,-1.784Z" style="fill-rule:nonzero;"/><path d="M252.765,22.395c-0.098,-0.671 -0.368,-1.178 -0.808,-1.521c-0.441,-0.343 -0.997,-0.514 -1.669,-0.514c-0.307,0 -0.636,0.052 -0.986,0.157c-0.35,0.105 -0.671,0.301 -0.965,0.588c-0.294,0.287 -0.539,0.685 -0.735,1.196c-0.196,0.511 -0.294,1.179 -0.294,2.004c0,0.448 0.053,0.895 0.158,1.343c0.105,0.448 0.273,0.846 0.504,1.196c0.23,0.35 0.528,0.633 0.891,0.85c0.364,0.217 0.805,0.325 1.322,0.325c0.7,0 1.277,-0.216 1.732,-0.65c0.454,-0.434 0.738,-1.042 0.85,-1.826l2.392,0c-0.224,1.413 -0.759,2.494 -1.605,3.242c-0.847,0.749 -1.969,1.123 -3.369,1.123c-0.853,0 -1.605,-0.143 -2.255,-0.43c-0.651,-0.287 -1.2,-0.679 -1.648,-1.175c-0.447,-0.497 -0.787,-1.088 -1.018,-1.774c-0.23,-0.685 -0.346,-1.427 -0.346,-2.224c0,-0.811 0.112,-1.574 0.336,-2.287c0.224,-0.714 0.56,-1.333 1.007,-1.858c0.448,-0.524 1.004,-0.937 1.669,-1.238c0.664,-0.301 1.444,-0.451 2.339,-0.451c0.63,0 1.228,0.081 1.795,0.241c0.566,0.161 1.07,0.403 1.511,0.724c0.44,0.322 0.801,0.728 1.08,1.218c0.28,0.489 0.448,1.07 0.504,1.741l-2.392,0Z" style="fill-rule:nonzero;"/><path d="M256.017,18.765l1.805,0l0,-3.253l2.392,0l0,3.253l2.162,0l0,1.784l-2.162,0l0,5.792c0,0.251 0.011,0.468 0.032,0.65c0.021,0.182 0.07,0.336 0.147,0.462c0.077,0.126 0.192,0.22 0.346,0.283c0.154,0.063 0.364,0.095 0.63,0.095c0.168,0 0.335,-0.004 0.503,-0.011c0.168,-0.007 0.336,-0.031 0.504,-0.073l0,1.846c-0.266,0.028 -0.525,0.056 -0.776,0.084c-0.252,0.028 -0.511,0.042 -0.777,0.042c-0.63,0 -1.137,-0.059 -1.521,-0.178c-0.385,-0.119 -0.686,-0.294 -0.903,-0.525c-0.217,-0.231 -0.364,-0.521 -0.44,-0.871c-0.077,-0.349 -0.123,-0.748 -0.137,-1.196l0,-6.4l-1.805,0l0,-1.784Z" style="fill-rule:nonzero;"/><path d="M264.16,14.631l2.392,0l0,2.266l-2.392,0l0,-2.266Zm0,4.134l2.392,0l0,10.849l-2.392,0l0,-10.849Z" style="fill-rule:nonzero;"/><path d="M276.478,22.395c-0.098,-0.671 -0.367,-1.178 -0.808,-1.521c-0.441,-0.343 -0.997,-0.514 -1.668,-0.514c-0.308,0 -0.637,0.052 -0.986,0.157c-0.35,0.105 -0.672,0.301 -0.966,0.588c-0.294,0.287 -0.538,0.685 -0.734,1.196c-0.196,0.511 -0.294,1.179 -0.294,2.004c0,0.448 0.052,0.895 0.157,1.343c0.105,0.448 0.273,0.846 0.504,1.196c0.231,0.35 0.528,0.633 0.892,0.85c0.364,0.217 0.804,0.325 1.322,0.325c0.699,0 1.277,-0.216 1.731,-0.65c0.455,-0.434 0.738,-1.042 0.85,-1.826l2.392,0c-0.223,1.413 -0.759,2.494 -1.605,3.242c-0.846,0.749 -1.969,1.123 -3.368,1.123c-0.853,0 -1.605,-0.143 -2.256,-0.43c-0.651,-0.287 -1.2,-0.679 -1.647,-1.175c-0.448,-0.497 -0.787,-1.088 -1.018,-1.774c-0.231,-0.685 -0.346,-1.427 -0.346,-2.224c0,-0.811 0.112,-1.574 0.335,-2.287c0.224,-0.714 0.56,-1.333 1.008,-1.858c0.447,-0.524 1.003,-0.937 1.668,-1.238c0.665,-0.301 1.444,-0.451 2.34,-0.451c0.629,0 1.227,0.081 1.794,0.241c0.567,0.161 1.07,0.403 1.511,0.724c0.441,0.322 0.801,0.728 1.081,1.218c0.28,0.489 0.447,1.07 0.503,1.741l-2.392,0Z" style="fill-rule:nonzero;"/><path d="M288.272,23.235c-0.028,-0.378 -0.109,-0.742 -0.241,-1.092c-0.133,-0.349 -0.315,-0.654 -0.546,-0.912c-0.231,-0.259 -0.511,-0.469 -0.84,-0.63c-0.328,-0.161 -0.696,-0.241 -1.101,-0.241c-0.42,0 -0.801,0.073 -1.144,0.22c-0.343,0.147 -0.636,0.35 -0.881,0.609c-0.245,0.258 -0.441,0.563 -0.588,0.913c-0.147,0.349 -0.227,0.727 -0.241,1.133l5.582,0Zm-5.582,1.574c0,0.419 0.059,0.825 0.178,1.217c0.119,0.392 0.297,0.734 0.535,1.028c0.238,0.294 0.539,0.528 0.903,0.703c0.363,0.175 0.797,0.262 1.301,0.262c0.699,0 1.262,-0.15 1.689,-0.451c0.427,-0.301 0.745,-0.752 0.955,-1.353l2.266,0c-0.126,0.587 -0.342,1.112 -0.65,1.574c-0.308,0.461 -0.679,0.849 -1.112,1.164c-0.434,0.315 -0.92,0.553 -1.459,0.714c-0.539,0.161 -1.102,0.241 -1.689,0.241c-0.854,0 -1.609,-0.14 -2.267,-0.42c-0.657,-0.279 -1.213,-0.671 -1.668,-1.175c-0.455,-0.503 -0.797,-1.105 -1.028,-1.805c-0.231,-0.699 -0.347,-1.469 -0.347,-2.308c0,-0.769 0.123,-1.5 0.368,-2.193c0.245,-0.692 0.594,-1.301 1.049,-1.826c0.455,-0.524 1.004,-0.94 1.647,-1.248c0.644,-0.308 1.371,-0.462 2.183,-0.462c0.853,0 1.619,0.178 2.298,0.535c0.678,0.357 1.241,0.829 1.689,1.417c0.448,0.587 0.773,1.262 0.976,2.025c0.203,0.762 0.255,1.549 0.157,2.361l-7.974,0Z" style="fill-rule:nonzero;"/><path d="M109.393,34.365l13.41,0" style="fill:none;stroke:#000;stroke-width:2px;"/></g></svg>
