<?xml version="1.0" standalone="no"?>
<!DOCTYPE svg PUBLIC "-//W3C//DTD SVG 20010904//EN"
 "http://www.w3.org/TR/2001/REC-SVG-20010904/DTD/svg10.dtd">
<svg version="1.0" xmlns="http://www.w3.org/2000/svg"
 width="700.000000pt" height="700.000000pt" viewBox="0 0 700.000000 700.000000"
 preserveAspectRatio="xMidYMid meet">
<metadata>
Created by potrace 1.11, written by Peter Selinger 2001-2013
</metadata>
<g transform="translate(0.000000,700.000000) scale(0.100000,-0.100000)"
fill="#000000" stroke="none">
<path d="M3458 6255 c-2 -1 -39 -5 -83 -9 -413 -31 -867 -283 -1130 -627 -27
-35 -53 -68 -58 -74 -46 -57 -158 -267 -207 -390 -34 -83 -73 -208 -91 -285
-6 -25 -13 -54 -15 -65 -42 -178 -59 -465 -41 -690 33 -405 168 -779 390
-1075 236 -316 600 -548 977 -624 156 -31 229 -38 420 -37 239 1 448 42 650
129 269 115 500 313 662 568 76 119 184 386 202 497 3 20 10 56 15 79 5 24 13
75 16 113 4 39 8 79 10 90 3 20 -1 21 -313 20 l-316 0 -17 -95 c-33 -184 -76
-310 -147 -435 -137 -237 -370 -393 -643 -431 -53 -7 -264 -7 -299 1 -14 3
-41 8 -60 11 -313 49 -588 269 -743 596 -52 109 -93 238 -121 380 -35 177 -38
206 -41 383 -7 529 162 978 460 1221 91 75 252 161 335 180 155 35 213 42 360
39 177 -3 272 -22 397 -80 229 -106 370 -277 471 -570 l27 -80 324 -1 323 -1
-6 46 c-12 89 -17 116 -22 131 -3 8 -8 26 -10 40 -10 50 -64 201 -95 262 -208
413 -586 671 -1119 764 -80 13 -450 29 -462 19z"/>
<path d="M1854 911 c-2 -2 -4 -81 -4 -175 l0 -171 1653 0 c1105 0 1654 3 1659
10 3 6 6 84 5 174 l-2 164 -1653 1 c-910 1 -1656 -1 -1658 -3z"/>
</g>
</svg>
